<svg width="267" height="107" viewBox="0 0 267 107" fill="none" xmlns="http://www.w3.org/2000/svg">
<path d="M34 46H267V107H34V46Z" fill="white"/>
<path d="M0 34.2308L72.3066 0L106.537 72.3066L34.2308 106.537L0 34.2308Z" fill="#E1FF00"/>
<path d="M70.2447 21.6495L93.9131 71.6448L86.4901 75.1589L31.3279 52.0077L45.6913 82.3481L59.5559 80.8447L59.4678 87.8561L35.7299 99.0939L33.3668 94.1022L37.6442 84.3437L18.9606 44.8778L7.93735 43.9859L8.06241 37.0524L22.2124 30.3536L75.8929 52.7741L62.0094 23.4477L48.2995 24.8779L48.4246 17.9445L72.1624 6.70665L74.5625 11.7764L70.2447 21.6495Z" fill="black"/>
<path d="M141.86 98.8065H107.571V97.0447L112.943 92.8392V58.399L107 56.4099L108.143 54.1367H141.289L144.375 53.1137V66.185L142.66 66.7533L135.86 56.6941H120.087V74.7098H129.059L133.231 67.4353H135.003V84.7122L132.717 85.8489L129.116 77.2672H120.087V96.2491H135.631L143.232 85.0532L144.946 85.6215V99.8295L141.86 98.8065Z" fill="black"/>
<path d="M214.007 59.763L200.291 96.9879L194.348 99.8863L185.262 73.1185L176.746 96.9879L170.803 99.8863L156.116 59.6493L150.687 56.4099L151.83 54.1367H167.489V55.8984L163.317 59.0242L175.203 92.3277L183.719 68.6856L180.633 59.5925L175.375 56.4099L176.518 54.1367H193.319V55.8984L188.233 59.8198L198.863 92.214L210.635 59.8198L200.463 56.4099L201.606 54.1367H218.979V55.8984L214.007 59.763Z" fill="black"/>
<path d="M247.685 88.7473C247.685 87.5728 247.209 86.474 246.256 85.451C245.304 84.4281 244.104 83.4998 242.656 82.6663C241.246 81.7949 239.322 80.734 236.884 79.4837C233.989 77.9682 231.665 76.68 229.912 75.6191C228.159 74.5204 226.655 73.2322 225.397 71.7545C224.178 70.2769 223.569 68.6477 223.569 66.867C223.569 64.9726 224.369 62.9456 225.969 60.786C227.569 58.5885 229.512 56.7509 231.798 55.2733C234.122 53.7578 236.255 53 238.198 53C240.561 53 243.304 53.2842 246.428 53.8525C249.552 54.4208 251.838 55.027 253.286 55.6711V66.6965H251.114C249.247 63.6276 247.19 61.2406 244.942 59.5357C242.732 57.8307 240.408 56.9782 237.97 56.9782C235.798 56.9782 234.065 57.6602 232.769 59.0242C231.512 60.3503 230.884 62.0931 230.884 64.2527C230.884 65.503 231.36 66.6776 232.312 67.7763C233.303 68.8372 234.503 69.7844 235.913 70.6179C237.36 71.4514 239.36 72.5312 241.913 73.8573C244.732 75.2592 247.018 76.5095 248.771 77.6082C250.523 78.6691 251.99 79.9194 253.171 81.3591C254.39 82.761 255 84.3523 255 86.133C255 88.0274 254.143 90.0734 252.428 92.2709C250.714 94.4305 248.618 96.268 246.142 97.7836C243.704 99.2612 241.475 100 239.456 100C236.979 100 234.027 99.7159 230.598 99.1475C227.207 98.5792 224.769 97.973 223.283 97.3289V86.3035H225.454C227.398 89.3724 229.607 91.7594 232.084 93.4643C234.56 95.1693 237.113 96.0218 239.741 96.0218C241.304 96.0218 242.694 95.6808 243.913 94.9988C245.132 94.3168 246.066 93.4264 246.714 92.3277C247.361 91.1911 247.685 89.9976 247.685 88.7473Z" fill="black"/>
</svg>
