<svg width="2105" height="844" viewBox="0 0 2105 844" fill="none" xmlns="http://www.w3.org/2000/svg">
<path d="M268.052 362.841H2105V844H268.052V362.841Z" fill="white"/>
<path d="M0 270.008L570.058 0L839.93 570.344L269.872 840.352L0 270.008Z" fill="#E1FF00"/>
<path d="M553.802 170.768L740.401 565.123L681.879 592.842L246.986 410.229L360.226 649.549L469.533 637.69L468.838 692.996L281.691 781.638L263.06 742.264L296.783 665.29L149.483 353.989L62.5772 346.954L63.5632 292.264L175.12 239.425L598.332 416.274L488.876 184.952L380.788 196.233L381.774 141.543L568.921 52.9011L587.843 92.8903L553.802 170.768Z" fill="black"/>
<path d="M1118.41 779.371H848.082V765.474L890.434 732.302V460.643L843.577 444.953L852.588 427.022H1113.91L1138.24 418.953V522.058L1124.72 526.54L1071.1 447.194H946.752V589.3H1017.49L1050.38 531.92H1064.35V668.197L1046.32 677.163L1017.94 609.472H946.752V759.198H1069.3L1129.22 670.887L1142.74 675.37V787.44L1118.41 779.371Z" fill="black"/>
<path d="M1687.21 471.402L1579.08 765.026L1532.22 787.888L1460.58 576.748L1393.45 765.026L1346.59 787.888L1230.8 470.505L1188 444.953L1197.01 427.022H1320.46V440.918L1287.57 465.574L1381.29 728.267L1448.42 541.782L1424.09 470.057L1382.64 444.953L1391.65 427.022H1524.11V440.918L1484.01 471.85L1567.81 727.37L1660.63 471.85L1580.43 444.953L1589.44 427.022H1726.41V440.918L1687.21 471.402Z" fill="black"/>
<path d="M1952.72 700.025C1952.72 690.761 1948.97 682.094 1941.46 674.025C1933.95 665.956 1924.49 658.634 1913.07 652.059C1901.96 645.186 1886.79 636.818 1867.57 626.955C1844.74 615.001 1826.42 604.84 1812.6 596.472C1798.79 587.805 1786.92 577.644 1777.01 565.989C1767.4 554.334 1762.59 541.483 1762.59 527.437C1762.59 512.494 1768.9 496.505 1781.51 479.471C1794.13 462.137 1809.45 447.643 1827.47 435.987C1845.79 424.033 1862.61 418.056 1877.93 418.056C1896.55 418.056 1918.18 420.298 1942.81 424.78C1967.44 429.263 1985.46 434.045 1996.88 439.125V526.092H1979.76C1965.04 501.885 1948.82 483.057 1931.1 469.609C1913.68 456.16 1895.35 449.436 1876.13 449.436C1859.01 449.436 1845.34 454.815 1835.13 465.574C1825.22 476.034 1820.26 489.781 1820.26 506.816C1820.26 516.678 1824.02 525.943 1831.53 534.609C1839.33 542.977 1848.8 550.449 1859.91 557.023C1871.32 563.598 1887.09 572.116 1907.22 582.575C1929.44 593.633 1947.47 603.495 1961.28 612.162C1975.1 620.53 1986.66 630.392 1995.98 641.749C2005.59 652.806 2010.39 665.358 2010.39 679.404C2010.39 694.347 2003.64 710.485 1990.12 727.819C1976.6 744.853 1960.08 759.348 1940.56 771.302C1921.33 782.957 1903.76 788.785 1887.84 788.785C1868.32 788.785 1845.04 786.544 1818.01 782.061C1791.28 777.578 1772.05 772.796 1760.34 767.716V680.749H1777.46C1792.78 704.956 1810.2 723.784 1829.72 737.233C1849.25 750.681 1869.37 757.405 1890.1 757.405C1902.41 757.405 1913.37 754.716 1922.99 749.336C1932.6 743.957 1939.96 736.934 1945.06 728.267C1950.17 719.301 1952.72 709.888 1952.72 700.025Z" fill="black"/>
</svg>
